<?xml version="1.0" encoding="utf-8"?>
<!-- Generator: Adobe Illustrator 23.0.3, SVG Export Plug-In . SVG Version: 6.00 Build 0)  -->
<svg version="1.1" id="Layer_1" xmlns="http://www.w3.org/2000/svg" xmlns:xlink="http://www.w3.org/1999/xlink" x="0px" y="0px"
	 viewBox="0 0 886.12 527.64" style="enable-background:new 0 0 886.12 527.64;" xml:space="preserve">
<style type="text/css">
	.st0{fill:#C1B3A0;}
	.st1{fill:#753A1C;}
	.st2{fill:#212830;}
	.st3{fill:#AA6130;}
	.st4{fill:#FFFFFF;}
	.st5{fill:#3C4858;}
</style>
<path class="st0" d="M883.63,364.08c-4.3-14.8-18.73-36.92-37.42-49.69c-33.82-23.12-46.91-21.52-86.18-23.11
	c24.18-39.28,29.83-65.81,30.16-90.88c0.29-22.53-1.19-35.57-10.63-54.41c-6.61-13.8-11.14-22.44-20.88-32.35
	c-4.87-4.96-14.95-12.64-14.84-12.55c-12.51-9.89-15.53-11.68-26.62-17.31c-21.15-10.72-23.01-11.87-48.5-18.29
	c-40.86-9-63.3-5.42-104.41,11.31c-21.21,8.62-28.72,7.83-64.87,41.88c-8.23-27.06-16.7-41.22-26.56-54.75
	c-15.31-20.99-27.2-34.78-49.19-48.6c-17.54-11-53.76-15.68-63.34-15.3c-37.84,1.45-62.76,8.81-90.51,20.62
	c-18.31,7.79-39.24,27.98-49.86,42.16c-31.45,41.95-51.01,75.65-47.7,144.75c-2.86-0.14-11.69-0.31-14.88-0.35
	c-10.13-0.16-10.18-1.14-27.52,3.73c-39.28,11.08-53.77,21.65-81.53,45.72c-23.83,20.67-40.29,50.41-45.7,72.78
	C-8.6,376.07,16.91,444.09,63.92,474.85c19.32,16.85,36.75,27.31,74.17,33.46c103.06,16.96,60.28,10.07,119.04,15.89
	c30.89,2.29,35.96,2.92,55.96,2.52c36.7-0.77,44.16,3.35,117.35-1.45c22.69-0.29,56.5,3.04,105.2-0.3
	c17.41-1.19,37.57-0.97,60.57-2.63c121.03-8.84,156.96-18.06,198.34-31.44c8.08-2.61,13.28-4.06,28.02-11.72
	c26.74-13.94,46.38-29.51,58.36-57.99C886.84,407.18,887.65,377.97,883.63,364.08z"/>
</svg>
